<mxfile host="app.diagrams.net" agent="Mozilla/5.0 (X11; Linux x86_64) AppleWebKit/537.36 (KHTML, like Gecko) Chrome/139.0.0.0 Safari/537.36" version="28.1.2">
  <diagram name="PÃ¡gina-1" id="e38UbT29Kqghq3w7yru9">
    <mxGraphModel dx="1977" dy="907" grid="1" gridSize="10" guides="1" tooltips="1" connect="1" arrows="1" fold="1" page="1" pageScale="1" pageWidth="827" pageHeight="1169" math="0" shadow="0">
      <root>
        <mxCell id="0" />
        <mxCell id="1" parent="0" />
        <mxCell id="GW13eoubw-cd3XYsjpFc-13" style="edgeStyle=orthogonalEdgeStyle;rounded=0;orthogonalLoop=1;jettySize=auto;html=1;" parent="1" source="GW13eoubw-cd3XYsjpFc-3" edge="1">
          <mxGeometry relative="1" as="geometry">
            <mxPoint x="350" y="535" as="targetPoint" />
          </mxGeometry>
        </mxCell>
        <mxCell id="GW13eoubw-cd3XYsjpFc-3" value="cmd" style="swimlane;whiteSpace=wrap;html=1;fillColor=#ffe6cc;fontColor=#333333;strokeColor=#d79b00;" parent="1" vertex="1">
          <mxGeometry x="40" y="20" width="240" height="1030" as="geometry" />
        </mxCell>
        <mxCell id="GW13eoubw-cd3XYsjpFc-5" value="api" style="swimlane;whiteSpace=wrap;html=1;fillColor=#d5e8d4;strokeColor=#82b366;" parent="GW13eoubw-cd3XYsjpFc-3" vertex="1">
          <mxGeometry x="47" y="30" width="146" height="830" as="geometry">
            <mxRectangle x="47" y="30" width="60" height="30" as="alternateBounds" />
          </mxGeometry>
        </mxCell>
        <mxCell id="GW13eoubw-cd3XYsjpFc-6" value="dependencies.go" style="shape=note;whiteSpace=wrap;html=1;backgroundOutline=1;darkOpacity=0.05;fillColor=#dae8fc;strokeColor=#6c8ebf;" parent="GW13eoubw-cd3XYsjpFc-5" vertex="1">
          <mxGeometry x="16" y="30" width="100" height="120" as="geometry" />
        </mxCell>
        <mxCell id="GW13eoubw-cd3XYsjpFc-7" value="errors.go" style="shape=note;whiteSpace=wrap;html=1;backgroundOutline=1;darkOpacity=0.05;fillColor=#dae8fc;strokeColor=#6c8ebf;" parent="GW13eoubw-cd3XYsjpFc-5" vertex="1">
          <mxGeometry x="16" y="160" width="100" height="120" as="geometry" />
        </mxCell>
        <mxCell id="GW13eoubw-cd3XYsjpFc-8" value="handler.go" style="shape=note;whiteSpace=wrap;html=1;backgroundOutline=1;darkOpacity=0.05;fillColor=#dae8fc;strokeColor=#6c8ebf;" parent="GW13eoubw-cd3XYsjpFc-5" vertex="1">
          <mxGeometry x="16" y="300" width="100" height="120" as="geometry" />
        </mxCell>
        <mxCell id="GW13eoubw-cd3XYsjpFc-12" value="sever.go" style="shape=note;whiteSpace=wrap;html=1;backgroundOutline=1;darkOpacity=0.05;fillColor=#dae8fc;strokeColor=#6c8ebf;" parent="GW13eoubw-cd3XYsjpFc-5" vertex="1">
          <mxGeometry x="16" y="580" width="100" height="120" as="geometry" />
        </mxCell>
        <mxCell id="GW13eoubw-cd3XYsjpFc-11" value="person.go&lt;div&gt;(DTO)&lt;/div&gt;" style="shape=note;whiteSpace=wrap;html=1;backgroundOutline=1;darkOpacity=0.05;fillColor=#dae8fc;strokeColor=#6c8ebf;" parent="GW13eoubw-cd3XYsjpFc-5" vertex="1">
          <mxGeometry x="16" y="440" width="100" height="120" as="geometry" />
        </mxCell>
        <mxCell id="GW13eoubw-cd3XYsjpFc-4" value="main.go" style="shape=note;whiteSpace=wrap;html=1;backgroundOutline=1;darkOpacity=0.05;fillColor=#dae8fc;strokeColor=#6c8ebf;" parent="GW13eoubw-cd3XYsjpFc-3" vertex="1">
          <mxGeometry x="60" y="890" width="100" height="120" as="geometry" />
        </mxCell>
        <mxCell id="GW13eoubw-cd3XYsjpFc-14" value="config" style="swimlane;whiteSpace=wrap;html=1;fillColor=#ffe6cc;fontColor=#333333;strokeColor=#d79b00;" parent="1" vertex="1">
          <mxGeometry x="350" y="20" width="150" height="1030" as="geometry" />
        </mxCell>
        <mxCell id="GW13eoubw-cd3XYsjpFc-21" value="config.go" style="shape=note;whiteSpace=wrap;html=1;backgroundOutline=1;darkOpacity=0.05;fillColor=#dae8fc;strokeColor=#6c8ebf;" parent="GW13eoubw-cd3XYsjpFc-14" vertex="1">
          <mxGeometry x="30" y="455" width="100" height="120" as="geometry" />
        </mxCell>
        <mxCell id="GW13eoubw-cd3XYsjpFc-25" value="internal" style="swimlane;whiteSpace=wrap;html=1;fillColor=#fff2cc;strokeColor=#d6b656;" parent="1" vertex="1">
          <mxGeometry x="570" y="20" width="810" height="1440" as="geometry" />
        </mxCell>
        <mxCell id="GW13eoubw-cd3XYsjpFc-26" value="domain" style="swimlane;whiteSpace=wrap;html=1;fillColor=#d5e8d4;strokeColor=#82b366;" parent="GW13eoubw-cd3XYsjpFc-25" vertex="1">
          <mxGeometry x="47" y="30" width="163" height="1410" as="geometry">
            <mxRectangle x="47" y="30" width="80" height="30" as="alternateBounds" />
          </mxGeometry>
        </mxCell>
        <mxCell id="GW13eoubw-cd3XYsjpFc-27" value="dependencies.go" style="shape=note;whiteSpace=wrap;html=1;backgroundOutline=1;darkOpacity=0.05;fillColor=#dae8fc;strokeColor=#6c8ebf;" parent="GW13eoubw-cd3XYsjpFc-26" vertex="1">
          <mxGeometry x="16" y="30" width="100" height="120" as="geometry" />
        </mxCell>
        <mxCell id="GW13eoubw-cd3XYsjpFc-28" value="errors.go" style="shape=note;whiteSpace=wrap;html=1;backgroundOutline=1;darkOpacity=0.05;fillColor=#dae8fc;strokeColor=#6c8ebf;" parent="GW13eoubw-cd3XYsjpFc-26" vertex="1">
          <mxGeometry x="16" y="160" width="100" height="120" as="geometry" />
        </mxCell>
        <mxCell id="GW13eoubw-cd3XYsjpFc-29" value="handler.go" style="shape=note;whiteSpace=wrap;html=1;backgroundOutline=1;darkOpacity=0.05;fillColor=#dae8fc;strokeColor=#6c8ebf;" parent="GW13eoubw-cd3XYsjpFc-26" vertex="1">
          <mxGeometry x="16" y="300" width="100" height="120" as="geometry" />
        </mxCell>
        <mxCell id="4H_xA333mF8L2NYDEQ_P-5" value="domain" style="swimlane;whiteSpace=wrap;html=1;fillColor=#f8cecc;strokeColor=#b85450;" parent="GW13eoubw-cd3XYsjpFc-26" vertex="1">
          <mxGeometry x="8.5" y="440" width="146" height="970" as="geometry">
            <mxRectangle x="47" y="30" width="80" height="30" as="alternateBounds" />
          </mxGeometry>
        </mxCell>
        <mxCell id="4H_xA333mF8L2NYDEQ_P-6" value="dependencies.go" style="shape=note;whiteSpace=wrap;html=1;backgroundOutline=1;darkOpacity=0.05;fillColor=#dae8fc;strokeColor=#6c8ebf;" parent="4H_xA333mF8L2NYDEQ_P-5" vertex="1">
          <mxGeometry x="16" y="30" width="100" height="120" as="geometry" />
        </mxCell>
        <mxCell id="4H_xA333mF8L2NYDEQ_P-7" value="errors.go" style="shape=note;whiteSpace=wrap;html=1;backgroundOutline=1;darkOpacity=0.05;fillColor=#dae8fc;strokeColor=#6c8ebf;" parent="4H_xA333mF8L2NYDEQ_P-5" vertex="1">
          <mxGeometry x="16" y="160" width="100" height="120" as="geometry" />
        </mxCell>
        <mxCell id="4H_xA333mF8L2NYDEQ_P-8" value="handler.go" style="shape=note;whiteSpace=wrap;html=1;backgroundOutline=1;darkOpacity=0.05;fillColor=#dae8fc;strokeColor=#6c8ebf;" parent="4H_xA333mF8L2NYDEQ_P-5" vertex="1">
          <mxGeometry x="16" y="300" width="100" height="120" as="geometry" />
        </mxCell>
        <mxCell id="GW13eoubw-cd3XYsjpFc-42" value="middleware" style="swimlane;whiteSpace=wrap;html=1;fillColor=#d5e8d4;strokeColor=#82b366;" parent="GW13eoubw-cd3XYsjpFc-25" vertex="1">
          <mxGeometry x="320" y="30" width="146" height="970" as="geometry" />
        </mxCell>
        <mxCell id="GW13eoubw-cd3XYsjpFc-43" value="dependencies.go" style="shape=note;whiteSpace=wrap;html=1;backgroundOutline=1;darkOpacity=0.05;fillColor=#dae8fc;strokeColor=#6c8ebf;" parent="GW13eoubw-cd3XYsjpFc-42" vertex="1">
          <mxGeometry x="16" y="30" width="100" height="120" as="geometry" />
        </mxCell>
        <mxCell id="GW13eoubw-cd3XYsjpFc-44" value="errors.go" style="shape=note;whiteSpace=wrap;html=1;backgroundOutline=1;darkOpacity=0.05;fillColor=#dae8fc;strokeColor=#6c8ebf;" parent="GW13eoubw-cd3XYsjpFc-42" vertex="1">
          <mxGeometry x="16" y="160" width="100" height="120" as="geometry" />
        </mxCell>
        <mxCell id="GW13eoubw-cd3XYsjpFc-45" value="handler.go" style="shape=note;whiteSpace=wrap;html=1;backgroundOutline=1;darkOpacity=0.05;fillColor=#dae8fc;strokeColor=#6c8ebf;" parent="GW13eoubw-cd3XYsjpFc-42" vertex="1">
          <mxGeometry x="16" y="300" width="100" height="120" as="geometry" />
        </mxCell>
        <mxCell id="GW13eoubw-cd3XYsjpFc-46" value="sever.go" style="shape=note;whiteSpace=wrap;html=1;backgroundOutline=1;darkOpacity=0.05;fillColor=#dae8fc;strokeColor=#6c8ebf;" parent="GW13eoubw-cd3XYsjpFc-42" vertex="1">
          <mxGeometry x="16" y="580" width="100" height="120" as="geometry" />
        </mxCell>
        <mxCell id="GW13eoubw-cd3XYsjpFc-47" value="person.go&lt;div&gt;(DTO)&lt;/div&gt;" style="shape=note;whiteSpace=wrap;html=1;backgroundOutline=1;darkOpacity=0.05;fillColor=#dae8fc;strokeColor=#6c8ebf;" parent="GW13eoubw-cd3XYsjpFc-42" vertex="1">
          <mxGeometry x="16" y="440" width="100" height="120" as="geometry" />
        </mxCell>
        <mxCell id="GW13eoubw-cd3XYsjpFc-48" value="platform" style="swimlane;whiteSpace=wrap;html=1;fillColor=#d5e8d4;strokeColor=#82b366;" parent="GW13eoubw-cd3XYsjpFc-25" vertex="1">
          <mxGeometry x="510" y="30" width="146" height="970" as="geometry" />
        </mxCell>
        <mxCell id="GW13eoubw-cd3XYsjpFc-49" value="dependencies.go" style="shape=note;whiteSpace=wrap;html=1;backgroundOutline=1;darkOpacity=0.05;fillColor=#dae8fc;strokeColor=#6c8ebf;" parent="GW13eoubw-cd3XYsjpFc-48" vertex="1">
          <mxGeometry x="16" y="30" width="100" height="120" as="geometry" />
        </mxCell>
        <mxCell id="GW13eoubw-cd3XYsjpFc-50" value="errors.go" style="shape=note;whiteSpace=wrap;html=1;backgroundOutline=1;darkOpacity=0.05;fillColor=#dae8fc;strokeColor=#6c8ebf;" parent="GW13eoubw-cd3XYsjpFc-48" vertex="1">
          <mxGeometry x="16" y="160" width="100" height="120" as="geometry" />
        </mxCell>
        <mxCell id="GW13eoubw-cd3XYsjpFc-51" value="handler.go" style="shape=note;whiteSpace=wrap;html=1;backgroundOutline=1;darkOpacity=0.05;fillColor=#dae8fc;strokeColor=#6c8ebf;" parent="GW13eoubw-cd3XYsjpFc-48" vertex="1">
          <mxGeometry x="16" y="300" width="100" height="120" as="geometry" />
        </mxCell>
        <mxCell id="GW13eoubw-cd3XYsjpFc-52" value="sever.go" style="shape=note;whiteSpace=wrap;html=1;backgroundOutline=1;darkOpacity=0.05;fillColor=#dae8fc;strokeColor=#6c8ebf;" parent="GW13eoubw-cd3XYsjpFc-48" vertex="1">
          <mxGeometry x="16" y="580" width="100" height="120" as="geometry" />
        </mxCell>
        <mxCell id="GW13eoubw-cd3XYsjpFc-53" value="person.go&lt;div&gt;(DTO)&lt;/div&gt;" style="shape=note;whiteSpace=wrap;html=1;backgroundOutline=1;darkOpacity=0.05;fillColor=#dae8fc;strokeColor=#6c8ebf;" parent="GW13eoubw-cd3XYsjpFc-48" vertex="1">
          <mxGeometry x="16" y="440" width="100" height="120" as="geometry" />
        </mxCell>
      </root>
    </mxGraphModel>
  </diagram>
</mxfile>
